<?xml version="1.0" encoding="UTF-8" standalone="no"?>
<!-- Created with Inkscape (http://www.inkscape.org/) -->

<svg
   xmlns:dc="http://purl.org/dc/elements/1.1/"
   xmlns:cc="http://creativecommons.org/ns#"
   xmlns:rdf="http://www.w3.org/1999/02/22-rdf-syntax-ns#"
   xmlns:svg="http://www.w3.org/2000/svg"
   xmlns="http://www.w3.org/2000/svg"
   xmlns:xlink="http://www.w3.org/1999/xlink"
   xmlns:sodipodi="http://sodipodi.sourceforge.net/DTD/sodipodi-0.dtd"
   xmlns:inkscape="http://www.inkscape.org/namespaces/inkscape"
   width="839.40057mm"
   height="420.35245mm"
   viewBox="0 0 839.40057 420.35245"
   version="1.1"
   id="svg4491"
   inkscape:version="0.92.1 r15371"
   sodipodi:docname="29.svg">
  <defs
     id="defs4485" />
  <sodipodi:namedview
     id="base"
     pagecolor="#ffffff"
     bordercolor="#666666"
     borderopacity="1.0"
     inkscape:pageopacity="0.0"
     inkscape:pageshadow="2"
     inkscape:zoom="0.12374369"
     inkscape:cx="824.1994"
     inkscape:cy="517.19998"
     inkscape:document-units="mm"
     inkscape:current-layer="layer3"
     showgrid="false"
     inkscape:window-width="1280"
     inkscape:window-height="736"
     inkscape:window-x="0"
     inkscape:window-y="27"
     inkscape:window-maximized="1"
     fit-margin-top="0"
     fit-margin-left="0"
     fit-margin-right="0"
     fit-margin-bottom="0" />
  <metadata
     id="metadata4488">
    <rdf:RDF>
      <cc:Work
         rdf:about="">
        <dc:format>image/svg+xml</dc:format>
        <dc:type
           rdf:resource="http://purl.org/dc/dcmitype/StillImage" />
        <dc:title />
      </cc:Work>
    </rdf:RDF>
  </metadata>
  <g
     inkscape:label="BG IMG"
     inkscape:groupmode="layer"
     id="layer1"
     style="display:none"
     transform="translate(281.79314,40.930786)">
    <image
       sodipodi:absref="/home/marco/Downloads/trellik_wall/IMG_20190414_120429.jpg"
       xlink:href="IMG_20190414_120429.jpg"
       width="1219.2"
       height="914.40002"
       preserveAspectRatio="none"
       style="image-rendering:optimizeSpeed"
       id="image5093"
       x="-391.12973"
       y="-255.45001" />
  </g>
  <g
     inkscape:groupmode="layer"
     id="layer3"
     inkscape:label="path"
     style="display:inline"
     transform="translate(281.79314,40.930786)">
    <path
       style="display:inline;opacity:1;fill:#000000;stroke:none;stroke-width:5;stroke-linecap:butt;stroke-linejoin:miter;stroke-miterlimit:4;stroke-dasharray:none;stroke-opacity:1;fill-opacity:1"
       d="m -246.95704,59.66466 63.07561,-8.552627 C -108.79876,97.117358 -8.9392475,80.15385 91.673446,43.895756 229.73936,29.3603 356.46978,2.5690591 476.00702,-37.621448 c 8.89909,55.129644 35.73467,122.642664 63.87741,186.019588 l 14.96711,183.88143 C 488.39613,320.19705 423.6027,318.08638 365.62471,356.86838 L 47.573976,376.91359 -116.52951,360.07561 c -52.53528,-8.1678 -93.76947,-43.6192 -106.8292,-65.54049 -15.13685,-25.40783 -32.66806,-34.11627 -38.10681,-48.31759 -8.70824,-22.73836 -1.74809,-47.3222 -17.56387,-64.67797 z"
       id="path5096"
       inkscape:connector-curvature="0"
       sodipodi:nodetypes="cccccccccsscc" />
    <path
       style="display:inline;opacity:1;fill:#ff0000;stroke:none;stroke-width:5;stroke-linecap:butt;stroke-linejoin:miter;stroke-miterlimit:4;stroke-dasharray:none;stroke-opacity:1;fill-opacity:1"
       d="M 444.49805,17.355469 C 332.72616,51.422868 217.45299,73.353639 101.33594,85.824219 15.197683,116.45705 -82.251905,139.01871 -170.90001,105.02705 c -27.16068,-24.822465 -56.03361,5.45033 -54.04732,34.65782 -13.28476,43.48371 -1.14191,93.33009 31.94245,124.87895 21.50983,25.2037 48.51476,47.72028 82.42923,52.36591 45.308461,6.58286 91.118892,9.5151 136.611648,14.81108 53.946547,4.21135 107.731082,-4.75769 161.629582,-6.51321 54.86603,-3.45803 109.73206,-6.91606 164.59809,-10.37408 46.37107,-28.00556 102.29153,-36.28529 155.66211,-31.875 -3.36784,-41.37305 -6.73567,-82.74609 -10.10351,-124.11914 -20.2923,-46.15325 -39.77242,-92.856771 -53.32422,-141.503911 z"
       id="path4497"
       inkscape:connector-curvature="0" />
  </g>
</svg>
