<?xml version="1.0" encoding="UTF-8" standalone="no"?>
<!-- Created with Inkscape (http://www.inkscape.org/) -->

<svg
   xmlns:osb="http://www.openswatchbook.org/uri/2009/osb"
   xmlns:dc="http://purl.org/dc/elements/1.1/"
   xmlns:cc="http://creativecommons.org/ns#"
   xmlns:rdf="http://www.w3.org/1999/02/22-rdf-syntax-ns#"
   xmlns:svg="http://www.w3.org/2000/svg"
   xmlns="http://www.w3.org/2000/svg"
   xmlns:xlink="http://www.w3.org/1999/xlink"
   xmlns:sodipodi="http://sodipodi.sourceforge.net/DTD/sodipodi-0.dtd"
   xmlns:inkscape="http://www.inkscape.org/namespaces/inkscape"
   width="627.02405mm"
   height="838.9325mm"
   viewBox="0 0 627.02405 838.9325"
   version="1.1"
   id="svg8"
   inkscape:version="0.92.1 r15371"
   sodipodi:docname="45.svg">
  <defs
     id="defs2">
    <linearGradient
       id="linearGradient4539"
       osb:paint="solid">
      <stop
         style="stop-color:#000000;stop-opacity:1;"
         offset="0"
         id="stop4537" />
    </linearGradient>
  </defs>
  <sodipodi:namedview
     id="base"
     pagecolor="#ffffff"
     bordercolor="#666666"
     borderopacity="1.0"
     inkscape:pageopacity="0.0"
     inkscape:pageshadow="2"
     inkscape:zoom="0.32"
     inkscape:cx="1153.7017"
     inkscape:cy="2413.1855"
     inkscape:document-units="mm"
     inkscape:current-layer="layer2"
     showgrid="false"
     inkscape:window-width="1280"
     inkscape:window-height="736"
     inkscape:window-x="0"
     inkscape:window-y="27"
     inkscape:window-maximized="1"
     fit-margin-top="0"
     fit-margin-left="0"
     fit-margin-right="0"
     fit-margin-bottom="0"
     inkscape:snap-to-guides="false" />
  <metadata
     id="metadata5">
    <rdf:RDF>
      <cc:Work
         rdf:about="">
        <dc:format>image/svg+xml</dc:format>
        <dc:type
           rdf:resource="http://purl.org/dc/dcmitype/StillImage" />
        <dc:title />
      </cc:Work>
    </rdf:RDF>
  </metadata>
  <g
     inkscape:label="BG IMG"
     inkscape:groupmode="layer"
     id="layer1"
     style="display:none"
     transform="translate(91.943434,131.74054)">
    <image
       sodipodi:absref="/home/marco/Downloads/trellik_wall/IMG_20190414_120445.jpg"
       xlink:href="IMG_20190414_120445.jpg"
       y="-390.46307"
       x="-236.46191"
       id="image4542"
       style="image-rendering:optimizeSpeed"
       preserveAspectRatio="none"
       height="1219.2"
       width="914.40002" />
  </g>
  <g
     inkscape:groupmode="layer"
     id="layer2"
     inkscape:label="PATH"
     style="display:inline"
     transform="translate(91.943434,131.74054)">
    <path
       style="display:inline;opacity:0.70200004;fill:#000000;fill-opacity:1;fill-rule:evenodd;stroke:none;stroke-width:7.55905533;stroke-linecap:butt;stroke-linejoin:miter;stroke-miterlimit:4;stroke-dasharray:none;stroke-opacity:1"
       d="M 497.40039,9.859375 C 428.09536,43.426455 344.24299,64.861658 233.2168,89.007812 L 14.558594,43.640625 124.64648,351.86523 c 61.07639,606.1065 216.88868,1891.82427 216.88868,1891.82427 91.23869,126.8693 56.98052,320.7516 53.49609,496.6894 -1.18787,59.9784 43.4113,120.3157 52.4707,180.0586 l 100,20 c 14.29604,-36.2966 -3.75119,-78.5565 45.71485,-128.5723 0,0 89.18841,-16.6074 160,2.8575 l 217.14258,297.1425 c 200.23302,-158.2297 363.79402,-114.6564 580.00002,48.5723 90.7216,-24.6097 178.659,-61.756 254.2871,-154.2871 15.7178,-190.1374 103.1562,-390.4733 554.2851,-614.2852 C 2049.9214,1086.0189 2060.4917,1339.3827 1874.6465,1027.5801 1634.6212,907.3007 1562.2574,738.05975 1518.9316,511.86523 c -108.1113,-3.77219 -247.835,-73.48285 -229.1464,-139.02539 0,0 -564.63697,-320.352723 -792.38481,-362.980465 z m -10.1543,150.525395 c 7.20697,0.025 14.41734,0.41673 21.60352,1.1914 209.00836,81.11912 423.12383,157.67992 610.59179,283.35742 94.1517,112.97714 251.3101,161.19855 322.9141,294.92383 31.5837,143.30698 139.0856,250.80971 248.455,341.29488 184.4249,136.1145 271.0483,359.0664 334.9297,571.1993 54.7518,161.6293 66.2196,333.0408 126.7774,492.625 76.4778,143.1687 -37.1347,236.2808 -154.4805,296.1113 -130.2083,89.159 -251.0272,205.6409 -288.1699,364.7851 -16.0043,190.5654 -228.4015,182.6183 -347.0469,89.6309 -131.7711,-81.7798 -316.8929,76.0582 -426.2285,-63.4355 -53.69753,-156.4826 -249.1476,-208.2236 -393.72657,-155.2618 17.59562,-161.854 24.73002,-338.3746 -61.97851,-483.3203 -31.76245,-259.9589 -62.7414,-520.0138 -92.94727,-780.1582 -40.47981,-318.8027 -65.32614,-639.99656 -115.97851,-957.19333 -76.66179,-145.63591 68.74358,-296.25878 215.28515,-295.75 z"
       transform="matrix(0.26458333,0,0,0.26458333,-91.943434,-131.74054)"
       id="path4545"
       inkscape:connector-curvature="0" />
  </g>
</svg>
